<?xml version="1.0" standalone="no"?>
<!DOCTYPE svg PUBLIC "-//W3C//DTD SVG 20010904//EN"
 "http://www.w3.org/TR/2001/REC-SVG-20010904/DTD/svg10.dtd">
<svg version="1.0" xmlns="http://www.w3.org/2000/svg"
 width="322.000000pt" height="322.000000pt" viewBox="0 0 322.000000 322.000000"
 preserveAspectRatio="xMidYMid meet">
<metadata>
Created by potrace 1.14, written by Peter Selinger 2001-2017
</metadata>
<g transform="translate(0.000000,322.000000) scale(0.100000,-0.100000)"
fill="#000000" stroke="none">
<path d="M0 1610 l0 -1610 1610 0 1610 0 0 1610 0 1610 -1610 0 -1610 0 0
-1610z m1617 1067 l28 -27 5 -313 c5 -340 6 -342 67 -398 57 -54 57 -54 395
-59 312 -5 318 -5 340 -27 17 -18 23 -37 26 -88 2 -35 1 -77 -3 -92 -4 -18
-98 -120 -266 -289 l-259 -260 0 -180 c0 -271 3 -274 298 -274 205 0 215 -3
215 -54 -1 -38 -44 -107 -90 -142 -25 -19 -64 -37 -96 -44 -37 -7 -279 -10
-788 -8 -828 3 -784 -1 -854 81 -67 78 -65 41 -65 1066 0 590 4 939 10 962 23
81 104 157 185 170 22 4 217 6 432 5 l393 -1 27 -28z m593 -242 c258 -258 263
-264 256 -297 -11 -58 -17 -59 -278 -56 -263 3 -265 4 -315 78 -22 32 -23 41
-23 269 0 130 4 241 8 248 10 16 52 31 73 26 9 -3 134 -123 279 -268z m661
-824 c52 -51 62 -87 38 -134 -6 -12 -142 -154 -302 -314 l-292 -293 -82 0 -83
0 0 88 0 87 303 308 c349 356 332 345 418 258z"/>
<path d="M922 2064 c-19 -13 -22 -24 -22 -83 0 -101 0 -101 208 -101 l171 0
21 28 c18 22 21 37 18 85 -6 85 -10 86 -208 87 -134 0 -170 -3 -188 -16z"/>
<path d="M920 1610 c-16 -16 -20 -33 -20 -83 0 -103 -28 -97 431 -97 464 0
439 -5 439 96 0 111 28 104 -435 104 -382 0 -396 -1 -415 -20z"/>
<path d="M930 1167 c-23 -11 -25 -19 -28 -84 -4 -110 -28 -103 357 -103 380 0
361 -5 361 96 0 68 -5 79 -43 93 -43 16 -615 14 -647 -2z"/>
</g>
</svg>
